<svg xmlns="http://www.w3.org/2000/svg">
    <symbol id='lightning' viewBox="0 0 24 24" fill="none">
        <path
            d="M10.2224 14.4888L9.5113 21.5999L18.7557 11.6443L13.778 8.7999L14.4891 2.3999L5.24463 12.3555L10.2224 14.4888Z"
            stroke="#D69D0B" stroke-width="2" stroke-linecap="round" stroke-linejoin="round" />
    </symbol>

    <symbol id='help-circle' viewBox="0 0 24 24">
        <path
            d="M11.9989 16.7999V16.8421M9.5999 9.04523C9.5999 7.69471 10.6744 6.5999 11.9999 6.5999C13.3254 6.5999 14.3999 7.69471 14.3999 9.04523C14.3999 10.3957 13.3254 11.4906 11.9999 11.4906C11.9999 11.4906 11.9989 12.2204 11.9989 13.1208M21.5999 11.9999C21.5999 17.3018 17.3018 21.5999 11.9999 21.5999C6.69797 21.5999 2.3999 17.3018 2.3999 11.9999C2.3999 6.69797 6.69797 2.3999 11.9999 2.3999C17.3018 2.3999 21.5999 6.69797 21.5999 11.9999Z"
            stroke-width="2" stroke-linecap="round" stroke-linejoin="round" />
    </symbol>
    <symbol id='link-angled' viewBox="0 0 24 24">
        <path
            d="M7.37851 10.1905L5.14505 12.424C4.31092 13.2581 3.83124 14.3931 3.84001 15.5859C3.84877 16.7787 4.31796 17.9206 5.19167 18.7673C6.03836 19.641 7.18048 20.1102 8.3731 20.119C9.59293 20.1279 10.701 19.6753 11.5352 18.8411L13.7687 16.6077M16.6215 13.8094L18.8549 11.576C19.6891 10.7418 20.1688 9.60687 20.16 8.41406C20.1512 7.22124 19.682 6.07936 18.8083 5.23262C17.9618 4.38614 16.8199 3.91693 15.6271 3.90816C14.4343 3.8994 13.2992 4.35185 12.465 5.18601L10.2315 7.41946M8.6131 15.3271L15.3135 8.62676"
            stroke-width="2" stroke-linecap="round" stroke-linejoin="round" />
    </symbol>

    <symbol id='empty-checked' viewBox="0 0 24 24" fill="none">
        <circle cx="12" cy="12" r="8" stroke="#D4D3D3" stroke-linecap="round" stroke-dasharray="3 3" />
    </symbol>


    <symbol id='checked' viewBox="0 0 24 24" fill="none">
        <circle cx="12" cy="12" r="8" fill="#636363" stroke="#636363" stroke-linecap="round" />
        <path
            d="M10.488 15.5999C10.4046 15.5999 10.3239 15.5838 10.2458 15.5515C10.1677 15.5192 10.0922 15.4654 10.0193 15.39L7.37918 12.6618C7.25421 12.5326 7.19432 12.3685 7.19953 12.1694C7.20474 11.9703 7.26983 11.8062 7.39481 11.677C7.51978 11.5479 7.676 11.4833 7.86346 11.4833C8.05093 11.4833 8.20715 11.5479 8.33212 11.677L10.5192 13.9371L15.6901 8.59362C15.815 8.46448 15.9687 8.3999 16.1509 8.3999C16.3332 8.3999 16.4868 8.46448 16.6118 8.59362C16.7367 8.72277 16.7992 8.88152 16.7992 9.06986C16.7992 9.2582 16.7367 9.41694 16.6118 9.54609L10.9566 15.39C10.8837 15.4654 10.8082 15.5192 10.7301 15.5515C10.652 15.5838 10.5713 15.5999 10.488 15.5999Z"
            fill="white" />
    </symbol>

    <symbol id='chevron-down' viewBox="0 0 20 20">
        <path d="M14 8L10 12L6 8" stroke-width="2" stroke-linecap="round"
            stroke-linejoin="round" />
    </symbol>

    <symbol id='collection' viewBox="0 0 16 17">
        <path
            d="M5.6001 2.8999C5.38792 2.8999 5.18444 2.98419 5.03441 3.13422C4.88438 3.28425 4.8001 3.48773 4.8001 3.6999C4.8001 3.91208 4.88438 4.11556 5.03441 4.26559C5.18444 4.41562 5.38792 4.4999 5.6001 4.4999H10.4001C10.6123 4.4999 10.8158 4.41562 10.9658 4.26559C11.1158 4.11556 11.2001 3.91208 11.2001 3.6999C11.2001 3.48773 11.1158 3.28425 10.9658 3.13422C10.8158 2.98419 10.6123 2.8999 10.4001 2.8999H5.6001ZM3.2001 6.0999C3.2001 5.88773 3.28438 5.68425 3.43441 5.53422C3.58444 5.38419 3.78792 5.2999 4.0001 5.2999H12.0001C12.2123 5.2999 12.4158 5.38419 12.5658 5.53422C12.7158 5.68425 12.8001 5.88773 12.8001 6.0999C12.8001 6.31208 12.7158 6.51556 12.5658 6.66559C12.4158 6.81562 12.2123 6.8999 12.0001 6.8999H4.0001C3.78792 6.8999 3.58444 6.81562 3.43441 6.66559C3.28438 6.51556 3.2001 6.31208 3.2001 6.0999ZM1.6001 9.2999C1.6001 8.87556 1.76867 8.46859 2.06873 8.16853C2.36878 7.86847 2.77575 7.6999 3.2001 7.6999H12.8001C13.2244 7.6999 13.6314 7.86847 13.9315 8.16853C14.2315 8.46859 14.4001 8.87556 14.4001 9.2999V12.4999C14.4001 12.9242 14.2315 13.3312 13.9315 13.6313C13.6314 13.9313 13.2244 14.0999 12.8001 14.0999H3.2001C2.77575 14.0999 2.36878 13.9313 2.06873 13.6313C1.76867 13.3312 1.6001 12.9242 1.6001 12.4999V9.2999Z"
        />
    </symbol>

    <symbol id='chat-alt' viewBox="0 0 16 17">
        <path
            d="M1.6001 4.4999C1.6001 4.07556 1.76867 3.66859 2.06873 3.36853C2.36878 3.06847 2.77575 2.8999 3.2001 2.8999H8.8001C9.22444 2.8999 9.63141 3.06847 9.93147 3.36853C10.2315 3.66859 10.4001 4.07556 10.4001 4.4999V7.6999C10.4001 8.12425 10.2315 8.53121 9.93147 8.83127C9.63141 9.13133 9.22444 9.2999 8.8001 9.2999H7.2001L4.8001 11.6999V9.2999H3.2001C2.77575 9.2999 2.36878 9.13133 2.06873 8.83127C1.76867 8.53121 1.6001 8.12425 1.6001 7.6999V4.4999Z"
        />
        <path
            d="M12.0001 6.1001V7.7001C12.0001 8.54879 11.663 9.36272 11.0628 9.96284C10.4627 10.563 9.6488 10.9001 8.80011 10.9001H7.86251L6.44971 12.3137C6.67371 12.4329 6.92891 12.5001 7.20011 12.5001H8.80011L11.2001 14.9001V12.5001H12.8001C13.2245 12.5001 13.6314 12.3315 13.9315 12.0315C14.2315 11.7314 14.4001 11.3244 14.4001 10.9001V7.7001C14.4001 7.27575 14.2315 6.86878 13.9315 6.56873C13.6314 6.26867 13.2245 6.1001 12.8001 6.1001H12.0001Z"
        />
    </symbol>

    <symbol id='clear' viewBox="0 0 24 25">
        <path fill-rule="evenodd" clip-rule="evenodd"
            d="M20.0982 2.89541C19.5659 2.3679 18.7035 2.36824 18.1716 2.89615L12.0377 8.98407L11.7589 8.70746C10.423 9.41711 9.01767 9.97541 7.51529 10.2239C5.70145 10.5238 3.87484 10.6464 2.03794 10.6464C1.52092 16.8024 6.35296 22.0219 12.6021 21.4582L12.8202 21.0254C13.5139 19.6489 14.1886 17.6304 14.6816 15.9999C15.0269 14.8579 15.3417 13.7081 15.6335 12.5518L15.4664 12.386L21.6013 6.29716C22.1333 5.76901 22.1328 4.91276 21.6004 4.38498L20.0982 2.89541ZM13.276 10.2126L14.2282 11.1574L20.0879 5.3416L19.1354 4.39712L13.276 10.2126ZM9.3924 11.5718L13.0841 15.2347C13.3531 14.3321 13.5659 13.5522 13.6909 13.0815L11.4191 10.8274C10.9555 11.0344 10.2492 11.3217 9.3924 11.5718ZM12.4945 17.1069L7.35584 12.0083C5.83853 12.2368 4.50898 12.3258 3.69411 12.361C3.80597 16.4923 7.58011 19.8571 11.4691 19.7974C11.821 19.0222 12.1728 18.0695 12.4945 17.1069Z"
        />
        <path
            d="M1 16.5L1.27009 17.2299L2 17.5L1.27009 17.7701L1 18.5L0.729909 17.7701L0 17.5L0.729909 17.2299L1 16.5Z"
        />
        <path
            d="M2.5 18.5L3.17523 20.3248L5 21L3.17523 21.6752L2.5 23.5L1.82477 21.6752L0 21L1.82477 20.3248L2.5 18.5Z"
        />
    </symbol>

    <symbol id='file' viewBox="0 0 20 20" fill="none">
        <path
            d="M16.9152 10.201L10.3101 16.8061C8.51233 18.6038 5.81613 18.8161 3.98318 16.9832C2.18541 15.1854 2.41906 12.5809 4.25201 10.748L11.6768 3.32315C12.8132 2.18679 14.6426 2.18679 15.779 3.32315C16.9154 4.45951 16.9154 6.28895 15.779 7.42531L8.22379 14.9805C7.6574 15.5469 6.7391 15.5469 6.17272 14.9805C5.60633 14.4141 5.60633 13.4958 6.17272 12.9294L12.9082 6.19396"
            stroke="#919191" stroke-width="1.5" stroke-linecap="round" />
    </symbol>

    <symbol id='microphone' viewBox="0 0 20 20" fill="none">
        <path
            d="M3.66504 9.31428C3.88656 10.8364 4.64869 12.2278 5.81199 13.2341C6.9753 14.2403 8.462 14.7941 10.0001 14.7941M10.0001 14.7941C11.5382 14.7941 13.025 14.2403 14.1883 13.2341C15.3516 12.2278 16.1137 10.8364 16.3352 9.31428M10.0001 14.7941V18M10.001 2C9.27359 2 8.57593 2.28898 8.06155 2.80336C7.54716 3.31775 7.25818 4.01541 7.25818 4.74286V8.4C7.25818 9.12745 7.54716 9.82511 8.06155 10.3395C8.57593 10.8539 9.27359 11.1429 10.001 11.1429C10.7285 11.1429 11.4261 10.8539 11.9405 10.3395C12.4549 9.82511 12.7439 9.12745 12.7439 8.4V4.74286C12.7439 4.01541 12.4549 3.31775 11.9405 2.80336C11.4261 2.28898 10.7285 2 10.001 2Z"
            stroke="#919191" stroke-width="1.5" stroke-linecap="round" stroke-linejoin="round" />
    </symbol>

    <symbol id='chat-send' viewBox="0 0 20 20" fill="none">
        <path
            d="M2.56322 7.8854C2.02122 8.1129 1.6848 8.5179 1.67972 9.09123C1.67622 9.49206 1.94672 10.0304 2.48872 10.2504C2.71197 10.3412 5.84655 10.7629 5.84655 10.7629C5.84655 10.7629 6.67622 13.3854 6.97522 14.3071C7.0618 14.5737 7.11114 14.7046 7.30114 14.8787C7.62347 15.1737 8.16839 15.0813 8.40405 14.8446C9.02755 14.2196 10.0131 13.2554 10.0131 13.2554L10.4278 13.5929C10.4278 13.5929 12.2696 15.0621 13.2763 15.7537C13.8691 16.1612 14.2805 16.5862 14.9476 16.5887C15.2875 16.5904 15.8326 16.4212 16.1929 16.0087C16.431 15.7362 16.5837 15.3004 16.6428 14.9096C16.7771 14.0221 18.3531 4.42541 18.3464 4.08957C18.3357 3.55374 17.885 3.25207 17.5103 3.2554C17.275 3.2579 17.0811 3.32624 16.6496 3.45791C13.3117 4.47708 2.7843 7.7929 2.56322 7.8854ZM15.0131 5.7554C15.0131 5.7554 10.6147 9.58374 8.85714 11.3454C8.29405 11.9096 8.2543 12.8779 8.2543 12.8779L7.34581 9.97123L15.0131 5.7554Z"
            fill="black" />
    </symbol>

    <symbol id='sparkles' viewBox="0 0 24 24" fill="none">
        <path
            d="M5 3V7V3ZM3 5H7H3ZM6 17V21V17ZM4 19H8H4ZM13 3L15.286 9.857L21 12L15.286 14.143L13 21L10.714 14.143L5 12L10.714 9.857L13 3Z"
            stroke="#919191" stroke-width="2" stroke-linecap="round" stroke-linejoin="round" />
    </symbol>

    <symbol id='star' viewBox="0 0 25 24" fill="none">
        <path
            d="M13.6176 2.92708C13.3186 2.00608 12.0156 2.00608 11.7156 2.92708L10.1966 7.60108C10.1312 7.80173 10.0039 7.97654 9.83312 8.10048C9.6623 8.22442 9.45665 8.29113 9.2456 8.29108H4.3316C3.3636 8.29108 2.9596 9.53108 3.7436 10.1011L7.7196 12.9891C7.89039 13.1132 8.0175 13.2883 8.08271 13.4891C8.14792 13.6899 8.14788 13.9063 8.0826 14.1071L6.5646 18.7811C6.2646 19.7021 7.3196 20.4691 8.1026 19.8991L12.0786 17.0111C12.2495 16.8869 12.4553 16.8199 12.6666 16.8199C12.8779 16.8199 13.0837 16.8869 13.2546 17.0111L17.2306 19.8991C18.0136 20.4691 19.0686 19.7031 18.7686 18.7811L17.2506 14.1071C17.1853 13.9063 17.1853 13.6899 17.2505 13.4891C17.3157 13.2883 17.4428 13.1132 17.6136 12.9891L21.5896 10.1011C22.3726 9.53108 21.9706 8.29108 21.0016 8.29108H16.0866C15.8757 8.29092 15.6703 8.22411 15.4997 8.10018C15.3291 7.97626 15.202 7.80157 15.1366 7.60108L13.6176 2.92708Z"
            stroke="#919191" stroke-width="2" stroke-linecap="round" stroke-linejoin="round" />
    </symbol>
    <symbol id='exclamation' viewBox="0 0 25 24" fill="none">
        <path
            d="M12.3334 8.99999V11M12.3334 15H12.3434M5.40542 19H19.2614C20.8014 19 21.7634 17.333 20.9934 16L14.0654 3.99999C13.2954 2.66699 11.3714 2.66699 10.6014 3.99999L3.67342 16C2.90342 17.333 3.86542 19 5.40542 19Z"
            stroke="#919191" stroke-width="2" stroke-linecap="round" stroke-linejoin="round" />
    </symbol>

    <symbol id='edit' viewBox="0 0 24 24">
        <path
            d="M4.7999 15.5999L8.9999 19.1999M11.9999 22.1999H21.5999M4.1999 15.5999L16.0313 3.35533C17.3052 2.08143 19.3706 2.08143 20.6445 3.35533C21.9184 4.62923 21.9184 6.69463 20.6445 7.96853L8.3999 19.7999L2.3999 21.5999L4.1999 15.5999Z"
          stroke-width="2" stroke-linecap="round" stroke-linejoin="round" />
    </symbol>

    <symbol id='pin-angle' viewBox="0 0 24 24">
        <path
            d="M15.0117 1.95312C14.7465 1.95312 14.4738 2.09163 14.2823 2.27493C12.7337 3.75773 12.2595 4.99773 12.8257 6.69633C11.5046 7.70893 10.6702 7.95743 9.02099 7.95743C6.76649 7.95743 5.29449 8.22923 4.29289 9.23013V9.26133C3.35569 10.1981 3.35569 11.6981 4.29289 12.6341L7.09309 15.4561L2.32199 20.2251C1.93149 20.6151 1.90239 21.2701 2.29289 21.6601C2.68349 22.0511 3.33989 22.0511 3.73049 21.6601L8.51929 16.8701L11.3242 19.6611C12.2615 20.5981 13.7619 20.5981 14.6992 19.6611H14.7305C15.7325 18.6601 16.0117 17.3771 16.0117 14.9451C16.0117 13.3991 16.329 12.3081 17.2897 11.1601C19.1386 11.7021 20.2143 11.1831 21.7305 9.66743C21.918 9.47993 22.0117 9.21413 22.0117 8.94903C22.0117 8.59733 21.9229 8.05823 21.6992 7.38743C21.3389 6.30733 20.7186 5.22063 19.7305 4.23303C18.7423 3.24553 17.6549 2.62553 16.5742 2.26543C15.903 2.04183 15.3636 1.95312 15.0117 1.95312ZM15.399 4.00773C16.4614 4.20493 17.5311 4.90822 18.2929 5.66973C19.0548 6.43113 19.7037 7.36372 19.9722 8.58602C19.0177 9.50163 18.4339 9.57403 17.4793 9.07153C17.0985 8.87103 16.616 8.94193 16.3117 9.24613C14.4907 11.0661 14.0117 12.7171 14.0117 14.9451C14.0117 16.8851 13.8976 17.6061 13.2929 18.2561C13.1222 18.4401 12.8867 18.4121 12.7305 18.2561L5.69919 11.2291C5.54299 11.0731 5.54779 10.8731 5.67369 10.7201C6.03089 10.2851 6.82589 9.94723 9.01169 9.94843C11.6247 9.94993 13.0138 9.27703 14.7305 7.66853C15.0348 7.36433 15.1104 6.89773 14.9179 6.51293C14.4037 5.48503 14.4839 4.94323 15.399 4.00773Z"
        />
    </symbol>

    <symbol id='stop' viewBox="0 0 20 20" fill="none">
        <path fill-rule="evenodd" clip-rule="evenodd"
            d="M10 18C12.1217 18 14.1566 17.1571 15.6569 15.6569C17.1571 14.1566 18 12.1217 18 10C18 7.87827 17.1571 5.84344 15.6569 4.34315C14.1566 2.84285 12.1217 2 10 2C7.87827 2 5.84344 2.84285 4.34315 4.34315C2.84285 5.84344 2 7.87827 2 10C2 12.1217 2.84285 14.1566 4.34315 15.6569C5.84344 17.1571 7.87827 18 10 18ZM8 7C7.73478 7 7.48043 7.10536 7.29289 7.29289C7.10536 7.48043 7 7.73478 7 8V12C7 12.2652 7.10536 12.5196 7.29289 12.7071C7.48043 12.8946 7.73478 13 8 13H12C12.2652 13 12.5196 12.8946 12.7071 12.7071C12.8946 12.5196 13 12.2652 13 12V8C13 7.73478 12.8946 7.48043 12.7071 7.29289C12.5196 7.10536 12.2652 7 12 7H8Z"
            fill="black" />
    </symbol>
    <symbol id='loader' width="20" height="20" viewBox="0 0 20 20" fill="none"
        xmlns="http://www.w3.org/2000/svg">
        <g clip-path="url(#clip0_2136_575)">
            <circle cx="10" cy="10" r="9" stroke="#E7E7E7" stroke-width="2" />
            <mask id="path-2-inside-1_2136_575" fill="white">
                <path
                    d="M10 0.996165C10 0.445998 10.4471 -0.00513987 10.9945 0.0495761C12.1387 0.163938 13.2572 0.475068 14.2999 0.97165C15.643 1.61135 16.8266 2.54269 17.7641 3.69778C18.7017 4.85287 19.3698 6.20261 19.7196 7.64862C19.9912 8.77111 20.0657 9.92966 19.9423 11.0729C19.8832 11.6199 19.3498 11.9647 18.8114 11.8515C18.273 11.7384 17.9348 11.2099 17.9803 10.6616C18.0509 9.81047 17.985 8.95135 17.7831 8.11709C17.503 6.95917 16.9681 5.87835 16.2173 4.95339C15.4665 4.02843 14.5188 3.28265 13.4432 2.7704C12.6683 2.40133 11.8411 2.16019 10.9936 2.05421C10.4477 1.98595 10 1.54633 10 0.996165Z" />
            </mask>
            <path
                d="M10 0.996165C10 0.445998 10.4471 -0.00513987 10.9945 0.0495761C12.1387 0.163938 13.2572 0.475068 14.2999 0.97165C15.643 1.61135 16.8266 2.54269 17.7641 3.69778C18.7017 4.85287 19.3698 6.20261 19.7196 7.64862C19.9912 8.77111 20.0657 9.92966 19.9423 11.0729C19.8832 11.6199 19.3498 11.9647 18.8114 11.8515C18.273 11.7384 17.9348 11.2099 17.9803 10.6616C18.0509 9.81047 17.985 8.95135 17.7831 8.11709C17.503 6.95917 16.9681 5.87835 16.2173 4.95339C15.4665 4.02843 14.5188 3.28265 13.4432 2.7704C12.6683 2.40133 11.8411 2.16019 10.9936 2.05421C10.4477 1.98595 10 1.54633 10 0.996165Z"
                stroke="black" stroke-width="2" mask="url(#path-2-inside-1_2136_575)" />
        </g>
        <defs>
            <clipPath id="clip0_2136_575">
                <rect width="20" height="20" fill="white" />
            </clipPath>
        </defs>
    </symbol>

    <symbol id='docs' viewBox="0 0 24 24" fill="none">
        <path
            d="M18.5 22.5H5.5C4.6715 22.5 4 21.8285 4 21V3C4 2.1715 4.6715 1.5 5.5 1.5H15L20 6.5V21C20 21.8285 19.3285 22.5 18.5 22.5Z"
            fill="#2196F3" />
        <path d="M20 6.5H15V1.5L20 6.5Z" fill="#BBDEFB" />
        <path d="M15 6.5L20 11.5V6.5H15Z" fill="#1565C0" />
        <path
            d="M7.5 11.5H16.5V12.5H7.5V11.5ZM7.5 13.5H16.5V14.5H7.5V13.5ZM7.5 15.5H16.5V16.5H7.5V15.5ZM7.5 17.5H12.5V18.5H7.5V17.5Z"
            fill="#E3F2FD" />
    </symbol>


</svg>