<svg xmlns="http://www.w3.org/2000/svg">
    <svg id='lightning' viewBox="0 0 24 24" fill="none">
        <path
            d="M10.2224 14.4888L9.5113 21.5999L18.7557 11.6443L13.778 8.7999L14.4891 2.3999L5.24463 12.3555L10.2224 14.4888Z"
            stroke="#D69D0B" stroke-width="2" stroke-linecap="round" stroke-linejoin="round" />
    </svg>

    <svg id='help-circle' viewBox="0 0 24 24" fill="none">
        <path
            d="M11.9989 16.7999V16.8421M9.5999 9.04523C9.5999 7.69471 10.6744 6.5999 11.9999 6.5999C13.3254 6.5999 14.3999 7.69471 14.3999 9.04523C14.3999 10.3957 13.3254 11.4906 11.9999 11.4906C11.9999 11.4906 11.9989 12.2204 11.9989 13.1208M21.5999 11.9999C21.5999 17.3018 17.3018 21.5999 11.9999 21.5999C6.69797 21.5999 2.3999 17.3018 2.3999 11.9999C2.3999 6.69797 6.69797 2.3999 11.9999 2.3999C17.3018 2.3999 21.5999 6.69797 21.5999 11.9999Z"
            stroke="#767676" stroke-width="2" stroke-linecap="round" stroke-linejoin="round" />
    </svg>
    <svg id='link-angled' viewBox="0 0 24 24" fill="none">
        <path
            d="M7.37851 10.1905L5.14505 12.424C4.31092 13.2581 3.83124 14.3931 3.84001 15.5859C3.84877 16.7787 4.31796 17.9206 5.19167 18.7673C6.03836 19.641 7.18048 20.1102 8.3731 20.119C9.59293 20.1279 10.701 19.6753 11.5352 18.8411L13.7687 16.6077M16.6215 13.8094L18.8549 11.576C19.6891 10.7418 20.1688 9.60687 20.16 8.41406C20.1512 7.22124 19.682 6.07936 18.8083 5.23262C17.9618 4.38614 16.8199 3.91693 15.6271 3.90816C14.4343 3.8994 13.2992 4.35185 12.465 5.18601L10.2315 7.41946M8.6131 15.3271L15.3135 8.62676"
            stroke="#767676" stroke-width="2" stroke-linecap="round" stroke-linejoin="round" />
    </svg>

    <svg id='empty-checked' viewBox="0 0 24 24" fill="none">
        <circle cx="12" cy="12" r="8" stroke="#D4D3D3" stroke-linecap="round" stroke-dasharray="3 3" />
    </svg>


    <svg id='checked' viewBox="0 0 24 24" fill="none">
        <circle cx="12" cy="12" r="8" fill="#636363" stroke="#636363" stroke-linecap="round" />
        <path
            d="M10.488 15.5999C10.4046 15.5999 10.3239 15.5838 10.2458 15.5515C10.1677 15.5192 10.0922 15.4654 10.0193 15.39L7.37918 12.6618C7.25421 12.5326 7.19432 12.3685 7.19953 12.1694C7.20474 11.9703 7.26983 11.8062 7.39481 11.677C7.51978 11.5479 7.676 11.4833 7.86346 11.4833C8.05093 11.4833 8.20715 11.5479 8.33212 11.677L10.5192 13.9371L15.6901 8.59362C15.815 8.46448 15.9687 8.3999 16.1509 8.3999C16.3332 8.3999 16.4868 8.46448 16.6118 8.59362C16.7367 8.72277 16.7992 8.88152 16.7992 9.06986C16.7992 9.2582 16.7367 9.41694 16.6118 9.54609L10.9566 15.39C10.8837 15.4654 10.8082 15.5192 10.7301 15.5515C10.652 15.5838 10.5713 15.5999 10.488 15.5999Z"
            fill="white" />
    </svg>

    <svg id='chevron-down' viewBox="0 0 20 20" fill="none">
        <path d="M14 8L10 12L6 8" stroke="black" stroke-width="2" stroke-linecap="round"
            stroke-linejoin="round" />
    </svg>

    <svg id='collection' viewBox="0 0 16 17">
        <path
            d="M5.6001 2.8999C5.38792 2.8999 5.18444 2.98419 5.03441 3.13422C4.88438 3.28425 4.8001 3.48773 4.8001 3.6999C4.8001 3.91208 4.88438 4.11556 5.03441 4.26559C5.18444 4.41562 5.38792 4.4999 5.6001 4.4999H10.4001C10.6123 4.4999 10.8158 4.41562 10.9658 4.26559C11.1158 4.11556 11.2001 3.91208 11.2001 3.6999C11.2001 3.48773 11.1158 3.28425 10.9658 3.13422C10.8158 2.98419 10.6123 2.8999 10.4001 2.8999H5.6001ZM3.2001 6.0999C3.2001 5.88773 3.28438 5.68425 3.43441 5.53422C3.58444 5.38419 3.78792 5.2999 4.0001 5.2999H12.0001C12.2123 5.2999 12.4158 5.38419 12.5658 5.53422C12.7158 5.68425 12.8001 5.88773 12.8001 6.0999C12.8001 6.31208 12.7158 6.51556 12.5658 6.66559C12.4158 6.81562 12.2123 6.8999 12.0001 6.8999H4.0001C3.78792 6.8999 3.58444 6.81562 3.43441 6.66559C3.28438 6.51556 3.2001 6.31208 3.2001 6.0999ZM1.6001 9.2999C1.6001 8.87556 1.76867 8.46859 2.06873 8.16853C2.36878 7.86847 2.77575 7.6999 3.2001 7.6999H12.8001C13.2244 7.6999 13.6314 7.86847 13.9315 8.16853C14.2315 8.46859 14.4001 8.87556 14.4001 9.2999V12.4999C14.4001 12.9242 14.2315 13.3312 13.9315 13.6313C13.6314 13.9313 13.2244 14.0999 12.8001 14.0999H3.2001C2.77575 14.0999 2.36878 13.9313 2.06873 13.6313C1.76867 13.3312 1.6001 12.9242 1.6001 12.4999V9.2999Z"
        />
    </svg>

    <svg id='chat-alt' viewBox="0 0 16 17">
        <path
            d="M1.6001 4.4999C1.6001 4.07556 1.76867 3.66859 2.06873 3.36853C2.36878 3.06847 2.77575 2.8999 3.2001 2.8999H8.8001C9.22444 2.8999 9.63141 3.06847 9.93147 3.36853C10.2315 3.66859 10.4001 4.07556 10.4001 4.4999V7.6999C10.4001 8.12425 10.2315 8.53121 9.93147 8.83127C9.63141 9.13133 9.22444 9.2999 8.8001 9.2999H7.2001L4.8001 11.6999V9.2999H3.2001C2.77575 9.2999 2.36878 9.13133 2.06873 8.83127C1.76867 8.53121 1.6001 8.12425 1.6001 7.6999V4.4999Z"
        />
        <path
            d="M12.0001 6.1001V7.7001C12.0001 8.54879 11.663 9.36272 11.0628 9.96284C10.4627 10.563 9.6488 10.9001 8.80011 10.9001H7.86251L6.44971 12.3137C6.67371 12.4329 6.92891 12.5001 7.20011 12.5001H8.80011L11.2001 14.9001V12.5001H12.8001C13.2245 12.5001 13.6314 12.3315 13.9315 12.0315C14.2315 11.7314 14.4001 11.3244 14.4001 10.9001V7.7001C14.4001 7.27575 14.2315 6.86878 13.9315 6.56873C13.6314 6.26867 13.2245 6.1001 12.8001 6.1001H12.0001Z"
        />
    </svg>


</svg>